<svg width="30" height="30" viewBox="0 0 30 30" fill="none" xmlns="http://www.w3.org/2000/svg">
<path fill-rule="evenodd" clip-rule="evenodd" d="M13.5 0C15.9853 0 18 2.01472 18 4.5L18.0001 6.25601C18.4693 6.09021 18.9741 6 19.5 6H25.5C27.9853 6 30 8.01472 30 10.5V25.5C30 27.9853 27.9853 30 25.5 30H4.5C2.01472 30 0 27.9853 0 25.5V4.5C0 2.01472 2.01472 0 4.5 0H13.5ZM13.5 3H4.5C3.67157 3 3 3.67157 3 4.5V25.5C3 26.3284 3.67157 27 4.5 27H15V4.5C15 3.67157 14.3284 3 13.5 3ZM25.5 9H19.5C18.6716 9 18 9.67157 18 10.5V27H25.5C26.3284 27 27 26.3284 27 25.5V10.5C27 9.67157 26.3284 9 25.5 9ZM10.5 18C11.3284 18 12 18.6716 12 19.5C12 20.3284 11.3284 21 10.5 21H7.5C6.67157 21 6 20.3284 6 19.5C6 18.6716 6.67157 18 7.5 18H10.5ZM24 18C24.8284 18 25.5 18.6716 25.5 19.5C25.5 20.3284 24.8284 21 24 21H21C20.1716 21 19.5 20.3284 19.5 19.5C19.5 18.6716 20.1716 18 21 18H24ZM10.5 12C11.3284 12 12 12.6716 12 13.5C12 14.3284 11.3284 15 10.5 15H7.5C6.67157 15 6 14.3284 6 13.5C6 12.6716 6.67157 12 7.5 12H10.5ZM24 12C24.8284 12 25.5 12.6716 25.5 13.5C25.5 14.3284 24.8284 15 24 15H21C20.1716 15 19.5 14.3284 19.5 13.5C19.5 12.6716 20.1716 12 21 12H24ZM10.5 6C11.3284 6 12 6.67157 12 7.5C12 8.32843 11.3284 9 10.5 9H7.5C6.67157 9 6 8.32843 6 7.5C6 6.67157 6.67157 6 7.5 6H10.5Z" fill="black"/>
</svg>
