<svg xmlns="http://www.w3.org/2000/svg" viewBox="0 0 28 28"><defs><style>.cls-1{fill:#fff;}.cls-2{stroke:#fff;stroke-miterlimit:10;stroke-width:0.1px;}</style></defs><g id="Layer_2" data-name="Layer 2"><g id="Layer_1-2" data-name="Layer 1"><path d="M24.86,26.71c.83,0,1.62,0,2.4,0a1,1,0,0,1,.65.36c.27.43-.09.91-.67.91-1.39,0-2.77,0-4.15,0H1.32c-.24,0-.48,0-.71,0A.62.62,0,0,1,0,27.33a.59.59,0,0,1,.64-.62c.8,0,1.6,0,2.48,0v-.6c0-6,0-15.9,0-21.91,0-.84.16-1,1-1h8.3c0-.18,0-.34,0-.5V1c0-.76.19-1,.92-1H23.9c.79,0,1,.19,1,1V26.71ZM13.69,1.31V26.68h2c0-.17,0-.32,0-.47V20.77c0-.78.16-.95.91-1h4c.72,0,.89.19.89.93v5.94h2.06V1.31ZM12.37,26.68V4.5h-8V26.68ZM17.05,21v5.41h3.18V21Z"/><path d="M18.63,16.19H21c.53,0,.72.19.72.73v1.56c0,.47-.21.69-.69.69h-4.9c-.47,0-.68-.22-.68-.7s0-1.07,0-1.61.2-.67.69-.67C17,16.18,17.81,16.19,18.63,16.19Zm-2,1.82h4v-.66h-4Z"/><path d="M18.63,7.19H21c.53,0,.72.19.72.73V9.48c0,.47-.21.69-.69.69h-4.9c-.47,0-.68-.22-.68-.7s0-1.07,0-1.61.2-.67.69-.67C17,7.18,17.81,7.19,18.63,7.19ZM16.62,9h4V8.35h-4Z"/><path d="M18.62,15.1H16.17c-.49,0-.68-.19-.68-.68s0-1,0-1.56.19-.72.69-.73h4.89c.49,0,.68.21.68.69s0,1,0,1.57-.18.7-.7.71Zm-2-1.82v.66h4v-.66Z"/><path d="M18.66,3.09h2.41c.48,0,.68.21.69.68s0,1.1,0,1.65a.56.56,0,0,1-.64.64q-2.49,0-5,0a.57.57,0,0,1-.64-.64c0-.57,0-1.13,0-1.69a.57.57,0,0,1,.65-.64Zm-2,1.82h4V4.24h-4Z"/><path d="M8.43,17.58h-2c-.59,0-.77-.17-.78-.76s0-1,0-1.56.19-.65.64-.65h4.21c.42,0,.6.2.61.63s0,1.12,0,1.69-.2.64-.67.65C9.79,17.59,9.11,17.58,8.43,17.58Zm-1.6-1.16H10v-.66H6.83Z"/><path d="M8.44,13.6h-2c-.54,0-.74-.19-.75-.72s0-1.07,0-1.6.22-.66.68-.66h4.13c.45,0,.65.2.66.63s0,1.12,0,1.68-.21.66-.67.67ZM6.83,12.45H10v-.68H6.83Z"/><path d="M8.44,9.6h-2c-.54,0-.74-.19-.75-.72s0-1.07,0-1.6.22-.66.68-.66h4.13c.45,0,.65.2.66.63s0,1.12,0,1.68-.21.66-.67.67ZM6.83,8.45H10V7.77H6.83Z"/><path d="M8.41,21.56h-2c-.51,0-.71-.2-.72-.7s0-1.07,0-1.6.21-.67.67-.67h4.13c.46,0,.66.21.67.66s0,1.1,0,1.65-.2.66-.69.67ZM6.83,20.4H10v-.65H6.83Z"/><circle class="cls-1" cx="18.78" cy="11.84" r="4.1"/><path d="M17.79,12.61h.35c.06,0,.08,0,.08.08a.63.63,0,0,0,0,.19.59.59,0,0,0,.93.3.49.49,0,0,0,0-.69,1.23,1.23,0,0,0-.36-.23c-.25-.13-.52-.24-.78-.37a1.17,1.17,0,0,1-.19-1.81,1.45,1.45,0,0,1,.69-.31c.06,0,.08,0,.08-.09s0-.28,0-.43,0-.1.1-.1H19c.07,0,.1,0,.1.1v.42c0,.07,0,.1.09.12a1.16,1.16,0,0,1,.94,1.12c0,.19,0,.19-.18.19h-.51c-.13,0-.13,0-.14-.12a.6.6,0,0,0-.11-.37.47.47,0,0,0-.5-.17.41.41,0,0,0-.33.35.49.49,0,0,0,.27.56c.19.11.39.18.58.28a3.2,3.2,0,0,1,.54.32,1.05,1.05,0,0,1,.39,1,1.1,1.1,0,0,1-1,1c-.08,0-.12,0-.11.13s0,.24,0,.36,0,.09-.08.09h-.31c-.06,0-.08,0-.08-.07s0-.25,0-.36,0-.14-.12-.15a1.18,1.18,0,0,1-.54-.2,1.14,1.14,0,0,1-.53-.89c0-.24,0-.24.22-.24Z"/><path class="cls-2" d="M18.78,16.46a4.62,4.62,0,1,1,4.61-4.62A4.63,4.63,0,0,1,18.78,16.46Zm0-8.43a3.81,3.81,0,1,0,3.8,3.81A3.82,3.82,0,0,0,18.78,8Z"/><path class="cls-2" d="M16,16a.43.43,0,0,0-.45-.43H14.26a.43.43,0,0,0-.47.42.44.44,0,0,0,.45.45h.27l-3.41,3.4h0L9.34,18.08a.43.43,0,0,0-.68,0l-.05.05-3,3-.19.19L5,21.74a.42.42,0,0,0,0,.62.39.39,0,0,0,.29.13.46.46,0,0,0,.33-.14l.07-.06L9,19H9v0l.75.74,1,1a.44.44,0,0,0,.72,0l1.13-1.13.74-.73L15.12,17v.27a.44.44,0,0,0,.74.33.41.41,0,0,0,.12-.31C16,16.88,16,16.43,16,16Z"/></g></g></svg>