<svg width="30" height="30" viewBox="0 0 30 30" fill="none" xmlns="http://www.w3.org/2000/svg">
<path fill-rule="evenodd" clip-rule="evenodd" d="M4.15395 0.00014057L4.03781 7.13834e-05C3.51062 -0.000431689 3.05617 -0.000865521 2.65357 0.0957937C1.38788 0.399645 0.399645 1.38788 0.0957937 2.65357C-0.000865521 3.05617 -0.000431689 3.51062 7.13834e-05 4.03781L0.00014057 4.15395V9.69237L7.13834e-05 9.80851C-0.000431689 10.3357 -0.000865521 10.7902 0.0957937 11.1927C0.399645 12.4584 1.38788 13.4467 2.65357 13.7506C3.05617 13.8472 3.51062 13.8468 4.03781 13.8462L4.15395 13.8462H9.69237L9.80851 13.8462C10.3357 13.8468 10.7902 13.8472 11.1927 13.7506C12.4584 13.4467 13.4467 12.4584 13.7506 11.1927C13.8472 10.7902 13.8468 10.3357 13.8462 9.80851L13.8462 9.69237V4.15395L13.8462 4.03781C13.8468 3.51062 13.8472 3.05617 13.7506 2.65357C13.4467 1.38788 12.4584 0.399645 11.1927 0.0957937C10.7902 -0.000865521 10.3357 -0.000431689 9.80851 7.13834e-05L9.69237 0.00014057H4.15395ZM3.1923 2.33971C3.29162 2.31584 3.4437 2.30781 4.15395 2.30781H9.69237C10.4026 2.30781 10.5547 2.31584 10.654 2.33971C11.0759 2.44099 11.4053 2.77039 11.5066 3.1923C11.5305 3.29162 11.5385 3.4437 11.5385 4.15395V9.69237C11.5385 10.4026 11.5305 10.5547 11.5066 10.654C11.4053 11.0759 11.0759 11.4053 10.654 11.5066C10.5547 11.5305 10.4026 11.5385 9.69237 11.5385H4.15395C3.4437 11.5385 3.29162 11.5305 3.1923 11.5066C2.77039 11.4053 2.44099 11.0759 2.33971 10.654C2.31584 10.5547 2.30781 10.4026 2.30781 9.69237V4.15395C2.30781 3.4437 2.31584 3.29162 2.33971 3.1923C2.44099 2.77039 2.77039 2.44099 3.1923 2.33971ZM20.3077 0.00014057L20.1915 7.13834e-05C19.6643 -0.000431689 19.2099 -0.000865521 18.8073 0.0957937C17.5416 0.399645 16.5534 1.38788 16.2495 2.65357C16.1528 3.05617 16.1533 3.51062 16.1538 4.03781L16.1539 4.15395V9.69237L16.1538 9.80851C16.1533 10.3357 16.1528 10.7902 16.2495 11.1927C16.5534 12.4584 17.5416 13.4467 18.8073 13.7506C19.2099 13.8472 19.6643 13.8468 20.1915 13.8462L20.3077 13.8462H25.8461L25.9622 13.8462C26.4895 13.8468 26.9438 13.8472 27.3465 13.7506C28.6121 13.4467 29.6004 12.4584 29.9044 11.1927C30.0008 10.7902 30.0006 10.3357 29.9999 9.80851V9.69237V4.15395V4.03781C30.0006 3.51062 30.0008 3.05617 29.9044 2.65357C29.6004 1.38788 28.6121 0.399645 27.3465 0.0957937C26.9438 -0.000865521 26.4895 -0.000431689 25.9622 7.13834e-05L25.8461 0.00014057H20.3077ZM19.346 2.33971C19.4453 2.31584 19.5974 2.30781 20.3077 2.30781H25.8461C26.5564 2.30781 26.7085 2.31584 26.8077 2.33971C27.2295 2.44099 27.5591 2.77039 27.6604 3.1923C27.6841 3.29162 27.6922 3.4437 27.6922 4.15395V9.69237C27.6922 10.4026 27.6841 10.5547 27.6604 10.654C27.5591 11.0759 27.2295 11.4053 26.8077 11.5066C26.7085 11.5305 26.5564 11.5385 25.8461 11.5385H20.3077C19.5974 11.5385 19.4453 11.5305 19.346 11.5066C18.9241 11.4053 18.5947 11.0759 18.4934 10.654C18.4696 10.5547 18.4615 10.4026 18.4615 9.69237V4.15395C18.4615 3.4437 18.4696 3.29162 18.4934 3.1923C18.5947 2.77039 18.9241 2.44099 19.346 2.33971ZM4.03781 16.1538L4.15395 16.1539H9.69237L9.80851 16.1538C10.3357 16.1533 10.7902 16.1528 11.1927 16.2495C12.4584 16.5534 13.4467 17.5416 13.7506 18.8073C13.8472 19.2099 13.8468 19.6643 13.8462 20.1915L13.8462 20.3077V25.8461L13.8462 25.9622C13.8468 26.4895 13.8472 26.9438 13.7506 27.3465C13.4467 28.6121 12.4584 29.6004 11.1927 29.9044C10.7902 30.0008 10.3357 30.0006 9.80851 29.9999H9.69237H4.15395H4.03781C3.51062 30.0006 3.05617 30.0008 2.65357 29.9044C1.38788 29.6004 0.399645 28.6121 0.0957937 27.3465C-0.000865521 26.9438 -0.000431689 26.4895 7.13834e-05 25.9622L0.00014057 25.8461V20.3077L7.13834e-05 20.1915C-0.000431689 19.6643 -0.000865521 19.2099 0.0957937 18.8073C0.399645 17.5416 1.38788 16.5534 2.65357 16.2495C3.05617 16.1528 3.51062 16.1533 4.03781 16.1538ZM4.15395 18.4615C3.4437 18.4615 3.29162 18.4696 3.1923 18.4934C2.77039 18.5947 2.44099 18.9241 2.33971 19.346C2.31584 19.4453 2.30781 19.5974 2.30781 20.3077V25.8461C2.30781 26.5564 2.31584 26.7085 2.33971 26.8077C2.44099 27.2295 2.77039 27.5591 3.1923 27.6604C3.29162 27.6841 3.4437 27.6922 4.15395 27.6922H9.69237C10.4026 27.6922 10.5547 27.6841 10.654 27.6604C11.0759 27.5591 11.4053 27.2295 11.5066 26.8077C11.5305 26.7085 11.5385 26.5564 11.5385 25.8461V20.3077C11.5385 19.5974 11.5305 19.4453 11.5066 19.346C11.4053 18.9241 11.0759 18.5947 10.654 18.4934C10.5547 18.4696 10.4026 18.4615 9.69237 18.4615H4.15395ZM20.3077 16.1539L20.1915 16.1538C19.6643 16.1533 19.2099 16.1528 18.8073 16.2495C17.5416 16.5534 16.5534 17.5416 16.2495 18.8073C16.1528 19.2099 16.1533 19.6643 16.1538 20.1915L16.1539 20.3077V25.8461L16.1538 25.9622C16.1533 26.4895 16.1528 26.9438 16.2495 27.3465C16.5534 28.6121 17.5416 29.6004 18.8073 29.9044C19.2099 30.0008 19.6643 30.0006 20.1915 29.9999H20.3077H25.8461H25.9622C26.4895 30.0006 26.9438 30.0008 27.3465 29.9044C28.6121 29.6004 29.6004 28.6121 29.9044 27.3465C30.0008 26.9438 30.0006 26.4895 29.9999 25.9622V25.8461V20.3077V20.1915C30.0006 19.6643 30.0008 19.2099 29.9044 18.8073C29.6004 17.5416 28.6121 16.5534 27.3465 16.2495C26.9438 16.1528 26.4895 16.1533 25.9622 16.1538L25.8461 16.1539H20.3077ZM19.346 18.4934C19.4453 18.4696 19.5974 18.4615 20.3077 18.4615H25.8461C26.5564 18.4615 26.7085 18.4696 26.8077 18.4934C27.2295 18.5947 27.5591 18.9241 27.6604 19.346C27.6841 19.4453 27.6922 19.5974 27.6922 20.3077V25.8461C27.6922 26.5564 27.6841 26.7085 27.6604 26.8077C27.5591 27.2295 27.2295 27.5591 26.8077 27.6604C26.7085 27.6841 26.5564 27.6922 25.8461 27.6922H20.3077C19.5974 27.6922 19.4453 27.6841 19.346 27.6604C18.9241 27.5591 18.5947 27.2295 18.4934 26.8077C18.4696 26.7085 18.4615 26.5564 18.4615 25.8461V20.3077C18.4615 19.5974 18.4696 19.4453 18.4934 19.346C18.5947 18.9241 18.9241 18.5947 19.346 18.4934Z" fill="black"/>
</svg>
