<svg width="24" height="24" viewBox="0 0 24 24" fill="none" xmlns="http://www.w3.org/2000/svg">
<path d="M8 22L8 2C8 1.46957 7.78929 0.960859 7.41421 0.585786C7.03914 0.210714 6.53043 0 6 0L2 0C1.46957 0 0.960859 0.210714 0.585787 0.585786C0.210714 0.960859 0 1.46957 0 2L0 22C0 22.5304 0.210714 23.0391 0.585787 23.4142C0.960859 23.7893 1.46957 24 2 24H6C6.53043 24 7.03914 23.7893 7.41421 23.4142C7.78929 23.0391 8 22.5304 8 22ZM2 22L2 2L6 2L6 22H2ZM20.172 13L17.586 15.586L19 17L24 12L19 7L17.586 8.414L20.172 11L14 11L14 0L12 0L12 24H14L14 13L20.172 13Z" fill="#BBBBBB"/>
</svg>
