<svg width="25" height="25" viewBox="0 0 25 25" fill="none" xmlns="http://www.w3.org/2000/svg">
<path d="M3.75 22.5C4.44036 22.5 5 21.9404 5 21.25C5 20.5596 4.44036 20 3.75 20C3.05964 20 2.5 20.5596 2.5 21.25C2.5 21.9404 3.05964 22.5 3.75 22.5Z" fill="black"/>
<path d="M2.5 2.5H5V13.75H2.5V2.5Z" fill="black"/>
<path d="M6.25 0H1.25C0.918479 0 0.600537 0.131696 0.366116 0.366116C0.131696 0.600537 0 0.918479 0 1.25V23.75C0 24.0815 0.131696 24.3995 0.366116 24.6339C0.600537 24.8683 0.918479 25 1.25 25H6.25C6.58152 25 6.89946 24.8683 7.13388 24.6339C7.3683 24.3995 7.5 24.0815 7.5 23.75V1.25C7.5 0.918479 7.3683 0.600537 7.13388 0.366116C6.89946 0.131696 6.58152 0 6.25 0ZM6.25 23.75H1.25V1.25H6.25V23.75Z" fill="black"/>
<path d="M12.5 22.5C13.1904 22.5 13.75 21.9404 13.75 21.25C13.75 20.5596 13.1904 20 12.5 20C11.8096 20 11.25 20.5596 11.25 21.25C11.25 21.9404 11.8096 22.5 12.5 22.5Z" fill="black"/>
<path d="M11.25 2.5H13.75V13.75H11.25V2.5Z" fill="black"/>
<path d="M15 0H10C9.66848 0 9.35054 0.131696 9.11612 0.366116C8.8817 0.600537 8.75 0.918479 8.75 1.25V23.75C8.75 24.0815 8.8817 24.3995 9.11612 24.6339C9.35054 24.8683 9.66848 25 10 25H15C15.3315 25 15.6495 24.8683 15.8839 24.6339C16.1183 24.3995 16.25 24.0815 16.25 23.75V1.25C16.25 0.918479 16.1183 0.600537 15.8839 0.366116C15.6495 0.131696 15.3315 0 15 0ZM15 23.75H10V1.25H15V23.75Z" fill="black"/>
<path d="M21.25 22.5C21.9404 22.5 22.5 21.9404 22.5 21.25C22.5 20.5596 21.9404 20 21.25 20C20.5596 20 20 20.5596 20 21.25C20 21.9404 20.5596 22.5 21.25 22.5Z" fill="black"/>
<path d="M20 2.5H22.5V13.75H20V2.5Z" fill="black"/>
<path d="M23.75 0H18.75C18.4185 0 18.1005 0.131696 17.8661 0.366116C17.6317 0.600537 17.5 0.918479 17.5 1.25V23.75C17.5 24.0815 17.6317 24.3995 17.8661 24.6339C18.1005 24.8683 18.4185 25 18.75 25H23.75C24.0815 25 24.3995 24.8683 24.6339 24.6339C24.8683 24.3995 25 24.0815 25 23.75V1.25C25 0.918479 24.8683 0.600537 24.6339 0.366116C24.3995 0.131696 24.0815 0 23.75 0ZM23.75 23.75H18.75V1.25H23.75V23.75Z" fill="black"/>
</svg>
