<svg width="24" height="31" viewBox="0 0 24 31" fill="none" xmlns="http://www.w3.org/2000/svg">
<path d="M22.5 12.1667H24V30.5H0V12.1667H1.5V8.83336C1.5 4.23337 4.86 0.500039 9 0.500039C10.065 0.500039 11.085 0.750038 12 1.20004C12.9446 0.73502 13.9668 0.4965 15 0.500039C19.14 0.500039 22.5 4.23337 22.5 8.83336V12.1667ZM4.5 8.83336V12.1667H7.5V8.83336C7.5 6.95003 8.085 5.23337 9.03 3.83337H9C6.525 3.83337 4.5 6.08337 4.5 8.83336ZM19.5 12.1667V8.83336C19.5 6.08337 17.475 3.83337 15 3.83337H14.97C15.9563 5.2705 16.4935 7.02606 16.5 8.83336V12.1667H19.5ZM12 5.13337C11.085 6.05003 10.5 7.3667 10.5 8.83336V12.1667H13.5V8.83336C13.5 7.3667 12.915 6.05003 12 5.13337Z" fill="black"/>
</svg>
