<svg xmlns="http://www.w3.org/2000/svg" viewBox="0 0 28 28"><defs><style>.cls-1{fill:#fff;}</style></defs><g id="Layer_2" data-name="Layer 2"><g id="Layer_1-2" data-name="Layer 1"><path d="M.53,26.28H25.61a.5.5,0,0,0,.52-.54V23.56a.5.5,0,0,0-.52-.54H23.55V12.49a3,3,0,0,0,1.53-2.55V8.31A.81.81,0,0,0,25,7.93L22.81,4.07V.54A.51.51,0,0,0,22.28,0H3.91a.51.51,0,0,0-.53.54V4.13L1.16,8v.1c0,.06,0,.11,0,.17h0V9.94a2.81,2.81,0,0,0,1.53,2.55V23H.53a.51.51,0,0,0-.53.54v2.18A.54.54,0,0,0,.53,26.28ZM24,9.94a1.78,1.78,0,0,1-1.74,1.79,1.84,1.84,0,0,1-1.8-1.79V8.85H24Zm-17.26,0V8.85h3.53V9.94a1.78,1.78,0,0,1-1.74,1.79A1.83,1.83,0,0,1,6.76,9.94Zm4.59,0V8.85h3.54V9.94a1.78,1.78,0,0,1-1.74,1.79A1.84,1.84,0,0,1,11.35,9.94Zm4.54,0V8.85h3.54V9.94a1.78,1.78,0,0,1-1.74,1.79A1.84,1.84,0,0,1,15.89,9.94ZM4.43,1.09H21.75v2.6H4.43ZM4.22,4.78H22L23.7,7.71H2.53ZM2.16,8.85H5.7V9.94A1.78,1.78,0,0,1,4,11.73,1.78,1.78,0,0,1,2.22,9.94V8.85Zm1.75,4a2.68,2.68,0,0,0,2.27-1.25,2.8,2.8,0,0,0,2.27,1.25,2.75,2.75,0,0,0,2.27-1.25A2.81,2.81,0,0,0,13,12.81a2.75,2.75,0,0,0,2.27-1.25,2.81,2.81,0,0,0,2.27,1.25,2.74,2.74,0,0,0,2.27-1.25,2.81,2.81,0,0,0,2.27,1.25h.21V23H3.7V12.81ZM1.06,24.11h24v1.08h-24Z"/><ellipse class="cls-1" cx="22.8" cy="22.65" rx="4.63" ry="4.76"/><path d="M21.69,23.54h.39a.08.08,0,0,1,.09.09.91.91,0,0,0,0,.23.66.66,0,0,0,1.05.34.57.57,0,0,0,0-.8,1.53,1.53,0,0,0-.4-.26c-.29-.15-.59-.28-.88-.44a1.37,1.37,0,0,1-.22-2.09,1.55,1.55,0,0,1,.78-.36c.07,0,.09,0,.09-.1v-.5c0-.08,0-.12.11-.11h.32c.08,0,.11,0,.11.11v.49a.11.11,0,0,0,.1.13,1.33,1.33,0,0,1,1.07,1.3c0,.23,0,.23-.2.23h-.59c-.14,0-.14,0-.15-.15a.75.75,0,0,0-.13-.43.51.51,0,0,0-.56-.19.46.46,0,0,0-.37.41.57.57,0,0,0,.3.64c.22.13.45.22.66.33a4.65,4.65,0,0,1,.61.36,1.33,1.33,0,0,1-.69,2.32c-.09,0-.13.05-.13.15s0,.28,0,.42,0,.1-.09.1h-.36c-.06,0-.08,0-.08-.09s0-.28,0-.42,0-.15-.14-.16a1.42,1.42,0,0,1-1.21-1.27c0-.28,0-.28.26-.28Z"/><path d="M22.8,28A5.35,5.35,0,1,1,28,22.65,5.29,5.29,0,0,1,22.8,28Zm0-9.77a4.42,4.42,0,1,0,4.29,4.42A4.37,4.37,0,0,0,22.8,18.23Z"/><path d="M18,14.5a.43.43,0,0,0-.43-.43H16.3a.42.42,0,0,0-.45.42.43.43,0,0,0,.44.44h.25l-3.28,3.38h0l-1.68-1.73a.42.42,0,0,0-.66,0l-.05.05L8,19.57l-.18.19-.43.44a.43.43,0,0,0,0,.62.41.41,0,0,0,.29.13A.48.48,0,0,0,8,20.81l.07-.07,3.18-3.27h0v0l.72.73.93,1a.42.42,0,0,0,.7,0l1.08-1.11.71-.73,1.75-1.79a.34.34,0,0,1,0,.1,1,1,0,0,0,0,.17.41.41,0,0,0,.7.32.39.39,0,0,0,.12-.3C18,15.39,18,14.94,18,14.5Z"/></g></g></svg>