<svg width="30" height="30" viewBox="0 0 30 30" fill="none" xmlns="http://www.w3.org/2000/svg">
<path d="M7.12493 8.33333C6.82656 8.33333 6.54041 8.46503 6.32943 8.69945C6.11845 8.93387 5.99992 9.25181 5.99992 9.58333V15.4167C5.99992 16.1067 6.50393 16.6667 7.12493 16.6667H22.8751C23.1734 16.6667 23.4596 16.535 23.6706 16.3005C23.8816 16.0661 24.0001 15.7482 24.0001 15.4167V9.58333C24.0001 9.25181 23.8816 8.93387 23.6706 8.69945C23.4596 8.46503 23.1734 8.33333 22.8751 8.33333H7.12493ZM8.24994 14.1667V10.8333H21.7501V14.1667H8.24994ZM17.625 18.3333C17.3267 18.3333 17.0405 18.465 16.8295 18.6994C16.6185 18.9339 16.5 19.2518 16.5 19.5833V23.75C16.5 24.44 17.004 25 17.625 25H22.8751C23.1734 25 23.4596 24.8683 23.6706 24.6339C23.8816 24.3995 24.0001 24.0815 24.0001 23.75V19.5833C24.0001 19.2518 23.8816 18.9339 23.6706 18.6994C23.4596 18.465 23.1734 18.3333 22.8751 18.3333H17.625ZM18.75 22.5V20.8333H21.7501V22.5H18.75ZM2.9999 0C2.33951 3.22825e-05 1.69759 0.24217 1.17368 0.688863C0.649769 1.13556 0.273149 1.76184 0.102227 2.47059C-0.0686951 3.17934 -0.0243681 3.93095 0.228333 4.60886C0.481035 5.28677 0.927989 5.85309 1.49988 6.22V28.75C1.49988 29.44 2.00389 30 2.62489 30H27.3751C27.6735 30 27.9596 29.8683 28.1706 29.6339C28.3816 29.3995 28.5001 29.0815 28.5001 28.75V6.22C29.072 5.85309 29.519 5.28677 29.7717 4.60886C30.0244 3.93095 30.0687 3.17934 29.8978 2.47059C29.7268 1.76184 29.3502 1.13556 28.8263 0.688863C28.3024 0.24217 27.6605 3.22825e-05 27.0001 0H2.9999ZM26.2501 6.66667V27.5H14.25V19.5833C14.25 19.2518 14.1315 18.9339 13.9205 18.6994C13.7095 18.465 13.4234 18.3333 13.125 18.3333H7.12493C6.82656 18.3333 6.54041 18.465 6.32943 18.6994C6.11845 18.9339 5.99992 19.2518 5.99992 19.5833V27.5H3.7499V6.66667H26.2501ZM2.24989 3.33333C2.24989 3.11232 2.32891 2.90036 2.46956 2.74408C2.61021 2.5878 2.80098 2.5 2.9999 2.5H27.0001C27.199 2.5 27.3898 2.5878 27.5304 2.74408C27.6711 2.90036 27.7501 3.11232 27.7501 3.33333C27.7501 3.55435 27.6711 3.76631 27.5304 3.92259C27.3898 4.07887 27.199 4.16667 27.0001 4.16667H2.9999C2.80098 4.16667 2.61021 4.07887 2.46956 3.92259C2.32891 3.76631 2.24989 3.55435 2.24989 3.33333ZM12 27.5H8.24994V20.8333H12V27.5Z" fill="black"/>
</svg>
