<svg width="28" height="28" viewBox="0 0 28 28" fill="none" xmlns="http://www.w3.org/2000/svg">
<path d="M28 4V2H25V0H23V2H22C20.897 2 20 2.898 20 4V6C20 7.103 20.897 8 22 8H26V10H20V12H23V14H25V12H26C27.103 12 28 11.103 28 10V8C28 6.898 27.103 6 26 6H22V4H28ZM22 18V20H24.586L21 23.586L18.708 21.293C18.5208 21.1057 18.2668 21.0003 18.002 21H18C17.7352 21.0003 17.4812 21.1057 17.294 21.293L12 26.586L13.414 28L18.001 23.414L20.293 25.707C20.4805 25.8945 20.7348 25.9998 21 25.9998C21.2652 25.9998 21.5195 25.8945 21.707 25.707L26 21.414V24H28V18H22ZM2 28H0V23C0 19.14 3.14 16 7 16H13C14.989 16 16.89 16.85 18.217 18.333L16.727 19.667C16.258 19.1426 15.6836 18.723 15.0414 18.4358C14.3992 18.1485 13.7035 18 13 18H7C4.243 18 2 20.243 2 23V28ZM10 14C11.8565 14 13.637 13.2625 14.9497 11.9497C16.2625 10.637 17 8.85652 17 7C17 5.14348 16.2625 3.36301 14.9497 2.05025C13.637 0.737498 11.8565 0 10 0C8.14348 0 6.36301 0.737498 5.05025 2.05025C3.7375 3.36301 3 5.14348 3 7C3 8.85652 3.7375 10.637 5.05025 11.9497C6.36301 13.2625 8.14348 14 10 14ZM10 2C11.3261 2 12.5979 2.52678 13.5355 3.46447C14.4732 4.40215 15 5.67392 15 7C15 8.32608 14.4732 9.59785 13.5355 10.5355C12.5979 11.4732 11.3261 12 10 12C8.67392 12 7.40215 11.4732 6.46447 10.5355C5.52678 9.59785 5 8.32608 5 7C5 5.67392 5.52678 4.40215 6.46447 3.46447C7.40215 2.52678 8.67392 2 10 2Z" fill="white"/>
</svg>
